<svg width="21" height="20" viewBox="0 0 21 20" fill="none" xmlns="http://www.w3.org/2000/svg">
<path d="M16.2382 20C16.0338 19.9994 15.8301 19.9776 15.6304 19.9348C11.8298 19.1691 8.32834 17.3737 5.52915 14.7553C2.78968 12.1312 0.889716 8.79006 0.0591278 5.13623C-0.0388091 4.68086 -0.0147715 4.20859 0.128928 3.76488C0.272627 3.32117 0.531152 2.92095 0.879631 2.60271L3.31075 0.323725C3.43492 0.209354 3.58246 0.121771 3.74374 0.066692C3.90502 0.0116131 4.07641 -0.00972344 4.24673 0.00407474C4.42333 0.0220183 4.59375 0.0774245 4.746 0.166397C4.89826 0.255369 5.02865 0.375748 5.12801 0.519066L8.16691 4.89354C8.28087 5.06327 8.33588 5.26415 8.32385 5.46662C8.31181 5.66908 8.23337 5.86244 8.10006 6.01823L6.57453 7.79406C7.1821 9.10371 8.04253 10.2874 9.10897 11.2806C10.1685 12.3099 11.4209 13.1317 12.7982 13.7017L14.6884 12.2396C14.8471 12.1174 15.0403 12.0451 15.2423 12.0324C15.4442 12.0197 15.6453 12.0672 15.8189 12.1685L20.4076 15.0572C20.5651 15.1488 20.6992 15.2739 20.8 15.4231C20.9008 15.5724 20.9656 15.7419 20.9896 15.919C21.0135 16.0961 20.9961 16.2761 20.9384 16.4457C20.8808 16.6153 20.7845 16.77 20.6568 16.8982L18.2864 19.1831C18.0172 19.444 17.6976 19.6505 17.3461 19.7907C16.9946 19.9309 16.6181 20.002 16.2382 20ZM4.14949 1.17612L1.71837 3.45511C1.52233 3.63302 1.37721 3.85756 1.29729 4.10665C1.21736 4.35575 1.20539 4.62081 1.26253 4.87578C2.03485 8.3044 3.81017 11.4418 6.37396 13.9088C9.0082 16.3723 12.3032 18.061 15.8796 18.7806C16.1503 18.8357 16.4309 18.8245 16.6961 18.7481C16.9612 18.6716 17.2028 18.5323 17.3991 18.3425L19.7694 16.0576L15.3387 13.2695L13.3087 14.8441C13.231 14.904 13.1394 14.9445 13.042 14.9621C12.9445 14.9796 12.8441 14.9737 12.7496 14.9448C11.064 14.3399 9.53652 13.3798 8.27631 12.133C6.97284 10.9475 5.96105 9.49058 5.31642 7.87102C5.28915 7.77297 5.28825 7.66974 5.31379 7.57125C5.33934 7.47276 5.39048 7.38234 5.46229 7.30867L7.1033 5.39669L4.14949 1.17612Z" fill="#403743"/>
</svg>
