<svg width="38" height="38" viewBox="0 0 38 38" fill="none" xmlns="http://www.w3.org/2000/svg">
<path d="M26.125 36.575H12.6667C6.80835 36.575 2.05835 31.825 2.05835 25.9667V12.6667C2.05835 6.80835 6.80835 2.05835 12.6667 2.05835H25.9667C31.825 2.05835 36.575 6.80835 36.575 12.6667V25.9667C36.575 31.825 31.825 36.575 26.125 36.575ZM12.6667 4.75002C8.23335 4.75002 4.75002 8.23335 4.75002 12.6667V25.9667C4.75002 30.4 8.39168 33.8833 12.6667 33.8833H25.9667C30.4 33.8833 33.8834 30.2417 33.8834 25.9667V12.6667C33.8834 8.23335 30.2417 4.75002 25.9667 4.75002H12.6667Z" fill="url(#paint0_radial)"/>
<path d="M19.3167 28.0251C14.5667 28.0251 10.6084 24.0667 10.6084 19.3167C10.6084 14.5667 14.5667 10.6084 19.3167 10.6084C24.0667 10.6084 28.0251 14.5667 28.0251 19.3167C28.0251 24.0667 24.2251 28.0251 19.3167 28.0251ZM19.3167 13.3001C15.9917 13.3001 13.3001 15.9917 13.3001 19.3167C13.3001 22.6417 15.9917 25.3334 19.3167 25.3334C22.6417 25.3334 25.3334 22.6417 25.3334 19.3167C25.4917 15.9917 22.6417 13.3001 19.3167 13.3001Z" fill="url(#paint1_radial)"/>
<path d="M28.975 11.875C30.1992 11.875 31.1916 10.8825 31.1916 9.65832C31.1916 8.43409 30.1992 7.44165 28.975 7.44165C27.7507 7.44165 26.7583 8.43409 26.7583 9.65832C26.7583 10.8825 27.7507 11.875 28.975 11.875Z" fill="url(#paint2_radial)"/>
<defs>
<radialGradient id="paint0_radial" cx="0" cy="0" r="1" gradientUnits="userSpaceOnUse" gradientTransform="translate(-0.922754 38.0724) scale(63.5134)">
<stop stop-color="white"/>
</radialGradient>
<radialGradient id="paint1_radial" cx="0" cy="0" r="1" gradientUnits="userSpaceOnUse" gradientTransform="translate(-0.922702 38.0724) scale(63.5133)">
<stop stop-color="white"/>
</radialGradient>
<radialGradient id="paint2_radial" cx="0" cy="0" r="1" gradientUnits="userSpaceOnUse" gradientTransform="translate(-0.922636 38.0722) scale(63.5132)">
<stop stop-color="white"/>
</radialGradient>
</defs>
</svg>
