<svg width="20" height="18" viewBox="0 0 20 18" fill="none" xmlns="http://www.w3.org/2000/svg">
<path d="M1 4.07842L8.89 10.22C9.21866 10.476 9.6049 10.6127 10 10.6127C10.3951 10.6127 10.7813 10.476 11.11 10.22L19 4.07842H1ZM3 16.922H17C17.5304 16.922 18.0391 16.676 18.4142 16.2381C18.7893 15.8001 19 15.2062 19 14.5868V2.91082C19 2.29149 18.7893 1.69752 18.4142 1.25959C18.0391 0.821652 17.5304 0.575623 17 0.575623H3C2.46957 0.575623 1.96086 0.821652 1.58579 1.25959C1.21071 1.69752 1 2.29149 1 2.91082V14.5868C1 15.2062 1.21071 15.8001 1.58579 16.2381C1.96086 16.676 2.46957 16.922 3 16.922Z" stroke="#333333" stroke-linecap="round" stroke-linejoin="round"/>
</svg>
