<svg width="18" height="18" viewBox="0 0 18 18" fill="none" xmlns="http://www.w3.org/2000/svg">
<path fill-rule="evenodd" clip-rule="evenodd" d="M13.5 4.90909C13.5 7.16843 11.4852 9 8.99999 9C6.51471 9 4.49999 7.16843 4.49999 4.90909C4.49999 2.64975 6.51471 0.818182 8.99999 0.818182C11.4852 0.818182 13.5 2.64975 13.5 4.90909ZM14.4 4.90909C14.4 7.62031 11.9823 9.81818 8.99999 9.81818C6.01766 9.81818 3.59999 7.62031 3.59999 4.90909C3.59999 2.19787 6.01766 0 8.99999 0C11.9823 0 14.4 2.19787 14.4 4.90909ZM14.7276 12.7931C16.0329 13.9799 16.8467 15.5299 17.0499 17.1818H8.99999H0.950118C1.15322 15.5299 1.96706 13.9799 3.27242 12.7931C4.79147 11.4122 6.85174 10.6364 8.99999 10.6364C11.1483 10.6364 13.2085 11.4122 14.7276 12.7931ZM17.1 18C17.5971 18 18.0047 17.6328 17.9551 17.1831C17.7487 15.3132 16.8386 13.5552 15.364 12.2146C13.6761 10.6802 11.387 9.81818 8.99999 9.81818C6.61305 9.81818 4.32386 10.6802 2.63603 12.2146C1.16133 13.5552 0.251254 15.3132 0.0449301 17.1831C-0.00467833 17.6328 0.402936 18 0.899988 18H8.99999H17.1Z" fill="white"/>
</svg>
