<svg width="39" height="39" viewBox="0 0 39 39" fill="none" xmlns="http://www.w3.org/2000/svg">
<path fill-rule="evenodd" clip-rule="evenodd" d="M35.9125 25.8376C34.775 24.5375 33.6375 23.4001 32.3375 22.2626C31.2 21.2875 31.2 20.6375 32.0125 19.3375C32.9875 18.0375 33.9625 16.7375 34.9375 15.4375C35.75 14.1375 36.725 13 37.2125 11.5375C37.5375 10.5625 37.2125 10.2375 36.2375 10.075C36.075 10.075 35.9125 10.075 35.75 10.075H30.0625C29.4125 10.075 28.925 10.4 28.7625 11.05C28.4375 11.8625 28.1125 12.675 27.625 13.4875C26.65 15.275 25.675 17.0625 24.2125 18.6875C23.8875 19.0126 23.5625 19.5 23.075 19.3375C22.425 19.175 22.2625 18.0375 22.2625 17.7125V11.05C22.1 10.075 21.9375 9.75005 20.9625 9.42505H14.95C14.1375 9.42505 13.8125 9.75005 13.325 10.2375C13.325 10.4 13.1625 10.725 13.65 10.725C14.625 10.8875 15.1125 11.5375 15.275 12.5125C15.4375 14.1375 15.4375 15.6 15.4375 17.2251C15.4375 17.7126 15.275 18.2 15.1125 18.525C14.7875 19.175 14.3 19.3376 13.8125 18.8501C13.325 18.5251 12.8375 17.875 12.5125 17.3875C11.05 15.4375 9.91251 13.1625 9.10001 10.8875C8.77501 10.5625 8.28751 10.075 7.63751 10.075C5.85001 10.075 4.22501 10.075 2.43751 10.075C1.46251 10.075 1.13751 10.5625 1.46251 11.5375C3.25001 15.7625 5.36251 19.6625 8.12501 23.4001C9.58751 25.35 11.05 26.975 13.1625 28.1126C15.4375 29.4125 18.0375 29.9001 20.6375 29.7376C21.9375 29.7376 22.2625 29.4125 22.2625 28.1126C22.2625 27.3001 22.425 26.4876 22.75 25.6751C23.2375 24.8626 23.725 24.8626 24.5375 25.1876C24.8625 25.3501 25.1875 25.6751 25.5125 26.0001C26.1625 26.8126 26.8125 27.6251 27.625 28.2751C28.6 29.2501 29.575 29.7376 31.0375 29.5751H36.2375C37.05 29.5751 37.5375 28.4376 37.05 27.4626C36.8875 27.1376 36.4 26.4876 35.9125 25.8376Z" fill="white"/>
</svg>
