<svg width="28" height="28" viewBox="0 0 28 28" fill="none" xmlns="http://www.w3.org/2000/svg">
<path fill-rule="evenodd" clip-rule="evenodd" d="M1.51667 26.95C1.63333 26.3667 1.75 25.9 1.86667 25.4334C2.33333 23.9167 2.68333 22.4 3.15 20.7667C3.26667 20.5334 3.15 20.1834 3.03333 20.0667C-0.933332 12.6 3.15 3.50004 11.4333 1.63338C18.9 -0.116622 25.6667 4.90004 26.8333 11.6667C28.1167 18.6667 23.45 25.4334 16.5667 26.6C13.7667 27.0667 11.0833 26.7167 8.63333 25.4334C8.4 25.3167 8.05 25.3167 7.81667 25.3167C4.43333 26.25 2.1 26.8334 1.51667 26.95ZM4.43333 24.0334C5.71667 23.6834 6.88333 23.45 8.05 23.1C8.4 22.9834 8.63333 23.1 8.86667 23.2167C11.0833 24.5 13.4167 24.9667 15.9833 24.5C21.8167 23.5667 25.7833 18.2 24.85 12.3667C23.9167 6.41671 18.3167 2.45004 12.3667 3.50004C5.25 4.78338 1.4 12.8334 4.9 19.1334C5.25 19.8334 5.36667 20.4167 5.13333 21.1167C4.9 22.05 4.66667 22.9834 4.43333 24.0334Z" fill="white"/>
<path fill-rule="evenodd" clip-rule="evenodd" d="M17.6167 20.1834C15.1667 20.0667 11.2 18.0834 8.4 13.4167C7.46666 11.6667 7.58333 9.80007 8.98333 8.40007C9.56666 8.05007 10.15 8.16674 10.6167 8.16674C10.7333 8.16674 10.85 8.40007 10.9667 8.51674C11.3167 9.33341 11.6667 10.1501 12.0167 10.9667C12.1333 11.4334 11.9 11.7834 11.2 12.6001C10.9667 12.8334 10.9667 13.0667 11.0833 13.3001C12.1333 15.0501 13.5333 16.3334 15.5167 17.1501C15.75 17.2667 15.9833 17.1501 16.2167 16.9167C17.2667 15.6334 17.3833 15.2834 17.85 15.5167C20.4167 16.8001 20.65 16.8001 20.65 17.1501C20.7667 19.4834 18.7833 20.1834 17.6167 20.1834Z" fill="white"/>
</svg>
