<svg width="35" height="35" viewBox="0 0 35 35" fill="none" xmlns="http://www.w3.org/2000/svg">
<path d="M31.7616 17.7195C31.3999 16.1481 30.1146 14.989 28.5675 14.8165C24.9049 14.4073 21.196 14.4054 17.5052 14.4073C13.8129 14.4054 10.1047 14.4073 6.44093 14.8165C4.89468 14.9894 3.61012 16.1485 3.24883 17.7195C2.73393 19.957 2.72775 22.3995 2.72775 24.7035C2.72775 27.0074 2.72775 29.4496 3.24266 31.6871C3.60394 33.2581 4.8885 34.4172 6.43553 34.5901C10.0985 34.9996 13.8067 35.0012 17.4986 34.9996C21.191 35.0016 24.8984 34.9996 28.5625 34.5901C30.1088 34.4172 31.3941 33.2581 31.7554 31.6871C32.2699 29.4496 32.2726 27.0074 32.2726 24.7035C32.2722 22.3992 32.2761 19.957 31.7616 17.7195ZM11.155 19.4537H9.01661V30.8163H7.03033V19.4537H4.93096V17.5925H11.155V19.4537ZM16.5499 30.8167H14.7632V29.7418C14.0533 30.5554 13.3794 30.9522 12.7228 30.9522C12.1473 30.9522 11.7513 30.7191 11.5726 30.22C11.4753 29.922 11.4151 29.4503 11.4151 28.7548V20.9633H13.2003V28.2179C13.2003 28.6363 13.2003 28.8536 13.2165 28.9123C13.2594 29.1894 13.3948 29.3299 13.6342 29.3299C13.9924 29.3299 14.3668 29.0539 14.7628 28.4939V20.9633H16.5495L16.5499 30.8167ZM23.3328 27.8593C23.3328 28.7706 23.2714 29.4272 23.1522 29.8448C22.9136 30.5778 22.4362 30.9522 21.726 30.9522C21.0906 30.9522 20.4777 30.5994 19.8806 29.8622V30.8171H18.0954V17.5925H19.8806V21.9113C20.4572 21.2014 21.0694 20.8425 21.726 20.8425C22.4362 20.8425 22.914 21.2165 23.1522 21.9541C23.2722 22.3505 23.3328 23.0021 23.3328 23.935V27.8593ZM30.071 26.2154H26.5002V27.962C26.5002 28.8741 26.7986 29.3295 27.4123 29.3295C27.8519 29.3295 28.1078 29.0906 28.2097 28.6135C28.2263 28.5166 28.2499 28.1198 28.2499 27.4038H30.0713V27.6644C30.0713 28.2399 30.0493 28.6363 30.0331 28.8146C29.9733 29.2099 29.8328 29.5684 29.6163 29.8842C29.1218 30.5998 28.3892 30.9526 27.4567 30.9526C26.5226 30.9526 25.8116 30.6164 25.2955 29.9436C24.9169 29.4503 24.7224 28.6737 24.7224 27.6266V24.1755C24.7224 23.1221 24.8949 22.3517 25.2743 21.8538C25.79 21.1794 26.5006 20.8436 27.4127 20.8436C28.3085 20.8436 29.0188 21.1794 29.519 21.8538C29.893 22.3517 30.0717 23.1221 30.0717 24.1755V26.2154H30.071Z" fill="white"/>
<path d="M27.3965 22.4501C26.7997 22.4501 26.5006 22.9059 26.5006 23.8169V24.7286H28.2858V23.8169C28.2854 22.9059 27.987 22.4501 27.3965 22.4501Z" fill="white"/>
<path d="M20.7707 22.4501C20.4765 22.4501 20.1786 22.589 19.8802 22.8843V28.8899C20.1782 29.1886 20.4765 29.3299 20.7707 29.3299C21.2856 29.3299 21.5473 28.8899 21.5473 28.0002V23.7945C21.5473 22.9059 21.2856 22.4501 20.7707 22.4501Z" fill="white"/>
<path d="M21.768 13.4991C22.4261 13.4991 23.1109 13.0992 23.8292 12.2763V13.3625H25.6337V3.40442H23.8292V11.0153C23.4293 11.5804 23.0503 11.8598 22.6894 11.8598C22.4478 11.8598 22.3057 11.717 22.2663 11.4372C22.2443 11.3781 22.2443 11.1585 22.2443 10.7358V3.40442H20.4456V11.2785C20.4456 11.9818 20.5059 12.4577 20.6054 12.7592C20.7869 13.2636 21.1871 13.4991 21.768 13.4991Z" fill="white"/>
<path d="M9.20611 7.95053V13.3624H11.2071V7.95053L13.6141 0H11.5907L10.2255 5.24747L8.80507 0H6.69952C7.12141 1.23863 7.56027 2.48343 7.98215 3.72322C8.62405 5.58675 9.0247 6.99174 9.20611 7.95053Z" fill="white"/>
<path d="M16.2959 13.499C17.1999 13.499 17.9024 13.159 18.4007 12.4797C18.7794 11.9813 18.9608 11.1962 18.9608 10.1379V6.65089C18.9608 5.58634 18.7797 4.80819 18.4007 4.30525C17.9024 3.62399 17.2003 3.28394 16.2959 3.28394C15.3966 3.28394 14.6945 3.62399 14.195 4.30525C13.8117 4.80819 13.6303 5.58634 13.6303 6.65089V10.1379C13.6303 11.1962 13.8117 11.9813 14.195 12.4797C14.6941 13.159 15.3966 13.499 16.2959 13.499ZM15.4348 6.28922C15.4348 5.36787 15.7142 4.90855 16.2959 4.90855C16.8776 4.90855 17.1563 5.36748 17.1563 6.28922V10.4779C17.1563 11.3993 16.8776 11.8601 16.2959 11.8601C15.7142 11.8601 15.4348 11.3993 15.4348 10.4779V6.28922Z" fill="white"/>
</svg>
