<svg width="24" height="24" viewBox="0 0 24 24" fill="none" xmlns="http://www.w3.org/2000/svg">
<path d="M18.4867 23.6267C18.2625 23.626 18.039 23.6015 17.82 23.5533C13.6511 22.6909 9.81041 20.6689 6.74 17.72C3.73512 14.7646 1.65107 11.0017 0.740005 6.88667C0.632579 6.37381 0.658945 5.84193 0.816567 5.34221C0.97419 4.84249 1.25776 4.39175 1.64 4.03334L4.30667 1.46667C4.44287 1.33786 4.60471 1.23922 4.78162 1.17719C4.95852 1.11516 5.14652 1.09113 5.33334 1.10667C5.52705 1.12688 5.71398 1.18928 5.88098 1.28948C6.04799 1.38969 6.19101 1.52526 6.3 1.68667L9.63334 6.61334C9.75834 6.8045 9.81868 7.03074 9.80548 7.25876C9.79228 7.48678 9.70623 7.70454 9.56 7.88L7.88667 9.88C8.5531 11.355 9.4969 12.6881 10.6667 13.8067C11.8289 14.9659 13.2026 15.8915 14.7133 16.5333L16.7867 14.8867C16.9608 14.749 17.1727 14.6677 17.3942 14.6534C17.6157 14.6391 17.8363 14.6926 18.0267 14.8067L23.06 18.06C23.2327 18.1631 23.3799 18.304 23.4904 18.4721C23.601 18.6402 23.6721 18.8311 23.6984 19.0305C23.7247 19.23 23.7055 19.4328 23.6423 19.6238C23.579 19.8148 23.4734 19.989 23.3333 20.1333L20.7333 22.7067C20.438 23.0006 20.0875 23.2331 19.7019 23.391C19.3163 23.5489 18.9033 23.629 18.4867 23.6267ZM5.22667 2.42667L2.56 4.99334C2.34497 5.1937 2.1858 5.44659 2.09813 5.72713C2.01046 6.00766 1.99732 6.30618 2.06 6.59334C2.90715 10.4548 4.85448 13.9882 7.66667 16.7667C10.5561 19.541 14.1704 21.4429 18.0933 22.2533C18.3903 22.3154 18.698 22.3028 18.9888 22.2167C19.2797 22.1306 19.5447 21.9737 19.76 21.76L22.36 19.1867L17.5 16.0467L15.2733 17.82C15.1881 17.8875 15.0876 17.9331 14.9807 17.9528C14.8738 17.9726 14.7637 17.9659 14.66 17.9333C12.8111 17.2521 11.1356 16.1708 9.75334 14.7667C8.32357 13.4315 7.21375 11.7907 6.50667 9.96667C6.47676 9.85625 6.47576 9.73998 6.50378 9.62906C6.53181 9.51815 6.5879 9.4163 6.66667 9.33334L8.46667 7.18L5.22667 2.42667Z" fill="#403743"/>
</svg>
