<svg width="31" height="32" viewBox="0 0 31 32" fill="none" xmlns="http://www.w3.org/2000/svg">
<path fill-rule="evenodd" clip-rule="evenodd" d="M19.8916 6.00005C20.7958 6.00005 21.7 6.00005 22.6041 6.00005C22.7333 6.00005 22.8625 6.00005 22.9916 6.00005V1.06672C22.475 1.06672 21.9583 0.933382 21.4416 0.933382C20.5375 0.933382 19.5041 0.800049 18.6 0.800049C17.1791 0.800049 15.7583 1.20005 14.5958 2.13338C13.175 3.20005 12.5291 4.53338 12.1416 6.26672C12.1416 6.93338 12.1416 7.73338 12.1416 8.40005C12.1416 9.46672 12.1416 10.6667 12.1416 11.7334V12.1334H7.49164V17.6H12.0125V31.4667H17.5666V17.6H22.0875C22.3458 15.7334 22.6041 14 22.7333 12.1334C22.3458 12.1334 22.0875 12.1334 21.7 12.1334C20.4083 12.1334 17.4375 12.1334 17.4375 12.1334C17.4375 12.1334 17.4375 9.46672 17.4375 8.26672C17.6958 6.53338 18.6 6.13338 19.8916 6.00005Z" fill="white"/>
</svg>
