<svg width="142" height="46" viewBox="0 0 142 46" fill="none" xmlns="http://www.w3.org/2000/svg">
<path d="M56.864 29.536C56.864 30.432 56.6453 31.232 56.208 31.936C55.7813 32.64 55.2053 33.1893 54.48 33.584C53.7653 33.9787 52.9973 34.176 52.176 34.176C51.056 34.176 50.096 33.9307 49.296 33.44C48.496 32.9387 47.888 32.272 47.472 31.44C47.0667 30.608 46.864 29.6907 46.864 28.688C46.864 27.6213 47.0987 26.6453 47.568 25.76C48.0373 24.8747 48.6933 24.176 49.536 23.664C50.3787 23.152 51.3387 22.896 52.416 22.896C53.0133 22.896 53.6053 23.008 54.192 23.232C54.7893 23.456 55.2747 23.776 55.648 24.192C56.0213 24.608 56.1973 25.088 56.176 25.632L54.976 25.648C54.976 25.3173 54.8427 25.04 54.576 24.816C54.3093 24.5813 53.9733 24.4053 53.568 24.288C53.1733 24.1707 52.7787 24.112 52.384 24.112C51.6053 24.112 50.8907 24.3253 50.24 24.752C49.6 25.1787 49.0933 25.744 48.72 26.448C48.3573 27.152 48.176 27.904 48.176 28.704C48.176 29.472 48.32 30.1813 48.608 30.832C48.9067 31.472 49.3547 31.9893 49.952 32.384C50.56 32.768 51.312 32.96 52.208 32.96C52.7733 32.96 53.3173 32.816 53.84 32.528C54.3627 32.24 54.784 31.8453 55.104 31.344C55.4347 30.8427 55.6 30.2987 55.6 29.712V29.408H51.824V28.192H56.864V29.536ZM62.2635 34.16C61.5062 34.16 60.8235 33.9787 60.2155 33.616C59.6182 33.2533 59.1488 32.7573 58.8075 32.128C58.4662 31.488 58.2955 30.768 58.2955 29.968C58.2955 29.168 58.4662 28.448 58.8075 27.808C59.1595 27.1573 59.6342 26.6507 60.2315 26.288C60.8395 25.9147 61.5222 25.728 62.2795 25.728C63.0368 25.728 63.7142 25.9093 64.3115 26.272C64.9195 26.6347 65.3942 27.1413 65.7355 27.792C66.0768 28.432 66.2475 29.152 66.2475 29.952C66.2475 30.752 66.0768 31.472 65.7355 32.112C65.3942 32.752 64.9195 33.2533 64.3115 33.616C63.7035 33.9787 63.0208 34.16 62.2635 34.16ZM62.2795 32.976C63.0795 32.976 63.7195 32.6987 64.1995 32.144C64.6902 31.5893 64.9355 30.8587 64.9355 29.952C64.9355 29.0347 64.6902 28.2987 64.1995 27.744C63.7195 27.1893 63.0795 26.912 62.2795 26.912C61.7568 26.912 61.2928 27.04 60.8875 27.296C60.4822 27.552 60.1675 27.9093 59.9435 28.368C59.7195 28.8267 59.6075 29.3547 59.6075 29.952C59.6075 30.8587 59.8528 31.5893 60.3435 32.144C60.8342 32.6987 61.4795 32.976 62.2795 32.976ZM71.4354 34.16C70.678 34.16 69.9954 33.9787 69.3874 33.616C68.79 33.2533 68.3207 32.7573 67.9794 32.128C67.638 31.488 67.4674 30.768 67.4674 29.968C67.4674 29.168 67.638 28.448 67.9794 27.808C68.3314 27.1573 68.806 26.6507 69.4034 26.288C70.0114 25.9147 70.694 25.728 71.4514 25.728C72.2087 25.728 72.886 25.9093 73.4834 26.272C74.0914 26.6347 74.566 27.1413 74.9074 27.792C75.2487 28.432 75.4194 29.152 75.4194 29.952C75.4194 30.752 75.2487 31.472 74.9074 32.112C74.566 32.752 74.0914 33.2533 73.4834 33.616C72.8754 33.9787 72.1927 34.16 71.4354 34.16ZM71.4514 32.976C72.2514 32.976 72.8914 32.6987 73.3714 32.144C73.862 31.5893 74.1074 30.8587 74.1074 29.952C74.1074 29.0347 73.862 28.2987 73.3714 27.744C72.8914 27.1893 72.2514 26.912 71.4514 26.912C70.9287 26.912 70.4647 27.04 70.0594 27.296C69.654 27.552 69.3394 27.9093 69.1154 28.368C68.8914 28.8267 68.7794 29.3547 68.7794 29.952C68.7794 30.8587 69.0247 31.5893 69.5154 32.144C70.006 32.6987 70.6514 32.976 71.4514 32.976ZM80.7993 38.256C78.2926 38.256 77.0393 37.1893 77.0393 35.056C77.0393 34.768 77.0553 34.48 77.0872 34.192C77.1299 33.904 77.1566 33.7173 77.1673 33.632C76.9646 33.4507 76.7939 33.2267 76.6553 32.96C76.5273 32.6827 76.4633 32.4 76.4633 32.112C76.4633 31.76 76.5646 31.408 76.7673 31.056C76.9699 30.6933 77.2526 30.4427 77.6153 30.304C77.7646 30.24 77.9833 30.208 78.2713 30.208C77.9833 29.7813 77.8393 29.2693 77.8393 28.672C77.8393 28.0747 77.9779 27.552 78.2553 27.104C78.5433 26.6453 78.9219 26.2933 79.3913 26.048C79.8713 25.8027 80.3886 25.68 80.9433 25.68C81.3486 25.68 81.7219 25.7493 82.0633 25.888H84.7833V27.12L83.6313 27.056C83.9299 27.5253 84.0793 28.0533 84.0793 28.64C84.0793 29.2267 83.9406 29.744 83.6633 30.192C83.3859 30.6293 83.0073 30.9653 82.5273 31.2C82.0579 31.4347 81.5299 31.552 80.9433 31.552C80.3673 31.552 79.8499 31.4453 79.3913 31.232C79.1779 31.2107 78.9913 31.2 78.8313 31.2C78.6393 31.2 78.4846 31.216 78.3673 31.248C78.2179 31.2907 78.0739 31.3813 77.9353 31.52C77.8073 31.6587 77.7433 31.84 77.7433 32.064C77.7433 32.3307 77.8446 32.5173 78.0473 32.624C78.2606 32.72 78.5646 32.768 78.9593 32.768L80.0473 32.736L81.3273 32.704C82.4259 32.704 83.3059 32.928 83.9673 33.376C84.6286 33.8133 84.9593 34.48 84.9593 35.376C84.9593 36.3787 84.5539 37.1093 83.7433 37.568C82.9326 38.0267 81.9513 38.256 80.7993 38.256ZM80.9753 30.368C81.5513 30.368 81.9993 30.208 82.3193 29.888C82.6393 29.5573 82.7993 29.1467 82.7993 28.656C82.7993 28.1333 82.6233 27.7067 82.2713 27.376C81.9193 27.0347 81.4713 26.864 80.9273 26.864C80.3726 26.864 79.9299 27.0347 79.5993 27.376C79.2793 27.7067 79.1193 28.1333 79.1193 28.656C79.1193 29.1893 79.2899 29.6107 79.6313 29.92C79.9833 30.2187 80.4313 30.368 80.9753 30.368ZM80.8153 37.088C81.6686 37.088 82.3566 36.9493 82.8793 36.672C83.4126 36.3947 83.6793 35.968 83.6793 35.392C83.6793 34.7733 83.4073 34.368 82.8633 34.176C82.3299 33.984 81.6953 33.888 80.9593 33.888C80.6926 33.888 80.4953 33.8933 80.3673 33.904C80.2499 33.904 80.0846 33.9093 79.8713 33.92C79.6579 33.92 79.3433 33.92 78.9273 33.92L78.5593 33.904C78.5699 33.904 78.4579 33.8933 78.2233 33.872L78.3033 35.024C78.3353 35.4827 78.3993 35.8453 78.4953 36.112C78.5913 36.3787 78.8153 36.608 79.1673 36.8C79.5299 36.992 80.0793 37.088 80.8153 37.088ZM86.5918 22.368H87.8718V34.016H86.5918V22.368ZM91.125 30.464C91.157 31.1253 91.333 31.712 91.653 32.224C91.9837 32.736 92.5863 32.992 93.461 32.992C93.9197 32.992 94.3463 32.9227 94.741 32.784C95.1357 32.6347 95.5517 32.4107 95.989 32.112L96.597 33.104C96.2023 33.424 95.717 33.6853 95.141 33.888C94.565 34.08 93.9837 34.176 93.397 34.176C92.6503 34.176 92.005 34.0053 91.461 33.664C90.917 33.312 90.501 32.8373 90.213 32.24C89.925 31.632 89.781 30.944 89.781 30.176C89.781 29.408 89.9197 28.6827 90.197 28C90.485 27.3173 90.901 26.768 91.445 26.352C91.9997 25.936 92.6557 25.728 93.413 25.728C94.0317 25.728 94.597 25.8773 95.109 26.176C95.621 26.4747 96.0263 26.8907 96.325 27.424C96.6237 27.9467 96.773 28.528 96.773 29.168C96.773 29.4347 96.7517 29.8667 96.709 30.464H91.125ZM95.477 29.28V29.12C95.477 28.704 95.381 28.3307 95.189 28C95.0077 27.6587 94.757 27.392 94.437 27.2C94.1277 27.008 93.781 26.912 93.397 26.912C92.853 26.912 92.3783 27.1147 91.973 27.52C91.5783 27.9253 91.317 28.512 91.189 29.28H95.477ZM107.386 23.024C108.015 23.024 108.57 23.1733 109.05 23.472C109.54 23.7707 109.919 24.1867 110.186 24.72C110.452 25.2533 110.586 25.856 110.586 26.528C110.586 27.6267 110.223 28.4907 109.498 29.12C108.772 29.7493 107.711 30.064 106.314 30.064L105.13 30.032V34.016H103.818V23.024H107.386ZM106.506 28.848C107.412 28.848 108.1 28.6453 108.57 28.24C109.039 27.824 109.274 27.2373 109.274 26.48C109.274 25.776 109.082 25.2267 108.698 24.832C108.314 24.4373 107.807 24.24 107.178 24.24H105.13V28.8L105.69 28.816C106.095 28.8373 106.367 28.848 106.506 28.848ZM112.576 22.368H113.856V34.016H112.576V22.368ZM121.797 34.208C121.392 33.9307 121.104 33.5893 120.933 33.184C120.688 33.4933 120.357 33.7333 119.941 33.904C119.536 34.0747 119.077 34.16 118.565 34.16C117.691 34.16 116.987 33.92 116.453 33.44C115.931 32.96 115.669 32.3253 115.669 31.536C115.669 30.704 115.984 30.0587 116.613 29.6C117.243 29.1307 118.123 28.896 119.253 28.896H120.645V28.56C120.645 27.952 120.533 27.5253 120.309 27.28C120.096 27.024 119.728 26.896 119.205 26.896C118.757 26.896 118.315 26.976 117.877 27.136C117.451 27.296 117.056 27.5253 116.693 27.824L116.053 26.848C116.437 26.496 116.912 26.2187 117.477 26.016C118.043 25.8133 118.624 25.712 119.221 25.712C120.107 25.712 120.784 25.9413 121.253 26.4C121.723 26.8587 121.957 27.52 121.957 28.384V31.568C121.957 32.4107 122.187 33.024 122.645 33.408L121.797 34.208ZM118.581 32.976C119.2 32.976 119.696 32.8 120.069 32.448C120.453 32.0853 120.645 31.6213 120.645 31.056V30.08H119.253C118.453 30.08 117.872 30.1973 117.509 30.432C117.157 30.656 116.981 31.0187 116.981 31.52C116.981 31.9787 117.12 32.336 117.397 32.592C117.685 32.848 118.08 32.976 118.581 32.976ZM124.136 36.848C124.808 36.8693 125.288 36.7787 125.576 36.576C125.704 36.48 125.821 36.3573 125.928 36.208C126.034 36.0693 126.109 35.92 126.152 35.76L126.68 34L123.24 25.808H124.696L127.272 32.24L129.176 25.808H130.6L127.368 36.176C127.282 36.4427 127.154 36.6987 126.984 36.944C126.813 37.2 126.616 37.4027 126.392 37.552C125.858 37.904 125.165 38.0693 124.312 38.048L124.136 36.848Z" fill="white"/>
<path d="M50.72 18.34V17H47.1V18.34H46.2V16.27L46.65 16.26C46.97 15.7267 47.2133 15.2533 47.38 14.84C47.5533 14.42 47.6833 14 47.77 13.58C47.8567 13.16 47.9333 12.6333 48 12H50.89V16.26L51.62 16.27V18.34H50.72ZM48.67 12.74C48.57 13.4667 48.44 14.0867 48.28 14.6C48.12 15.1133 47.87 15.6667 47.53 16.26H50.07V12.74H48.67ZM54.7194 17.1C54.246 17.1 53.8194 16.9867 53.4394 16.76C53.066 16.5333 52.7727 16.2233 52.5594 15.83C52.346 15.43 52.2394 14.98 52.2394 14.48C52.2394 13.98 52.346 13.53 52.5594 13.13C52.7794 12.7233 53.076 12.4067 53.4494 12.18C53.8294 11.9467 54.256 11.83 54.7294 11.83C55.2027 11.83 55.626 11.9433 55.9994 12.17C56.3794 12.3967 56.676 12.7133 56.8894 13.12C57.1027 13.52 57.2094 13.97 57.2094 14.47C57.2094 14.97 57.1027 15.42 56.8894 15.82C56.676 16.22 56.3794 16.5333 55.9994 16.76C55.6194 16.9867 55.1927 17.1 54.7194 17.1ZM54.7294 16.36C55.2294 16.36 55.6294 16.1867 55.9294 15.84C56.236 15.4933 56.3894 15.0367 56.3894 14.47C56.3894 13.8967 56.236 13.4367 55.9294 13.09C55.6294 12.7433 55.2294 12.57 54.7294 12.57C54.4027 12.57 54.1127 12.65 53.8594 12.81C53.606 12.97 53.4094 13.1933 53.2694 13.48C53.1294 13.7667 53.0594 14.0967 53.0594 14.47C53.0594 15.0367 53.2127 15.4933 53.5194 15.84C53.826 16.1867 54.2294 16.36 54.7294 16.36ZM60.3618 17.07C59.8885 17.07 59.4718 16.9633 59.1118 16.75C58.7518 16.5367 58.4718 16.24 58.2718 15.86C58.0785 15.4733 57.9818 15.0267 57.9818 14.52C57.9818 14 58.0851 13.54 58.2918 13.14C58.4985 12.7333 58.7885 12.42 59.1618 12.2C59.5351 11.9733 59.9618 11.86 60.4418 11.86C60.7551 11.86 61.0585 11.9233 61.3518 12.05C61.6451 12.17 61.8485 12.32 61.9618 12.5L61.4718 13.05C61.3185 12.8833 61.1618 12.7667 61.0018 12.7C60.8485 12.6333 60.6618 12.6 60.4418 12.6C59.9285 12.6 59.5218 12.7767 59.2218 13.13C58.9285 13.4767 58.7818 13.95 58.7818 14.55C58.7818 15.1033 58.9251 15.54 59.2118 15.86C59.5051 16.1733 59.9051 16.33 60.4118 16.33C60.6651 16.33 60.9085 16.29 61.1418 16.21C61.3818 16.1233 61.6618 15.98 61.9818 15.78L62.3218 16.41C62.0418 16.6233 61.7318 16.7867 61.3918 16.9C61.0518 17.0133 60.7085 17.07 60.3618 17.07ZM64.6839 12.75H62.6839V11.99H67.5039V12.75H65.5039V17H64.6839V12.75ZM68.3797 18.78C68.7997 18.7933 69.0997 18.7367 69.2797 18.61C69.3597 18.55 69.433 18.4733 69.4997 18.38C69.5664 18.2933 69.613 18.2 69.6397 18.1L69.9697 17L67.8197 11.88H68.7297L70.3397 15.9L71.5297 11.88H72.4197L70.3997 18.36C70.3464 18.5267 70.2664 18.6867 70.1597 18.84C70.053 19 69.9297 19.1267 69.7897 19.22C69.4564 19.44 69.023 19.5433 68.4897 19.53L68.3797 18.78ZM77.5613 17H76.7413V12.76H74.2013V17H73.3813V12H77.5613V17ZM83.344 17H82.524V14.92H79.974V17H79.154V13.31C79.154 12.93 79.0307 12.6167 78.784 12.37L79.344 11.82C79.764 12.24 79.974 12.7333 79.974 13.3V14.16H82.524V12H83.344V17ZM86.9752 17.1C86.5019 17.1 86.0752 16.9867 85.6952 16.76C85.3219 16.5333 85.0286 16.2233 84.8152 15.83C84.6019 15.43 84.4952 14.98 84.4952 14.48C84.4952 13.98 84.6019 13.53 84.8152 13.13C85.0352 12.7233 85.3319 12.4067 85.7052 12.18C86.0852 11.9467 86.5119 11.83 86.9852 11.83C87.4586 11.83 87.8819 11.9433 88.2552 12.17C88.6352 12.3967 88.9319 12.7133 89.1452 13.12C89.3586 13.52 89.4652 13.97 89.4652 14.47C89.4652 14.97 89.3586 15.42 89.1452 15.82C88.9319 16.22 88.6352 16.5333 88.2552 16.76C87.8752 16.9867 87.4486 17.1 86.9752 17.1ZM86.9852 16.36C87.4852 16.36 87.8852 16.1867 88.1852 15.84C88.4919 15.4933 88.6452 15.0367 88.6452 14.47C88.6452 13.8967 88.4919 13.4367 88.1852 13.09C87.8852 12.7433 87.4852 12.57 86.9852 12.57C86.6586 12.57 86.3686 12.65 86.1152 12.81C85.8619 12.97 85.6652 13.1933 85.5252 13.48C85.3852 13.7667 85.3152 14.0967 85.3152 14.47C85.3152 15.0367 85.4686 15.4933 85.7752 15.84C86.0819 16.1867 86.4852 16.36 86.9852 16.36ZM95.678 11.95C96.0114 11.95 96.298 12.0133 96.538 12.14C96.778 12.26 96.958 12.4233 97.078 12.63C97.2047 12.83 97.268 13.0467 97.268 13.28C97.268 13.48 97.228 13.6767 97.148 13.87C97.0747 14.0633 96.958 14.18 96.798 14.22C97.0447 14.3133 97.2314 14.48 97.358 14.72C97.4914 14.96 97.558 15.2233 97.558 15.51C97.558 15.9367 97.4147 16.2933 97.128 16.58C96.8414 16.86 96.4314 17 95.898 17H93.518V11.95H95.678ZM95.538 13.96C95.8247 13.96 96.0514 13.9067 96.218 13.8C96.3847 13.6867 96.468 13.52 96.468 13.3C96.468 12.9067 96.198 12.71 95.658 12.71H94.318V13.96H95.538ZM95.528 16.24C95.9347 16.24 96.2414 16.1833 96.448 16.07C96.6547 15.9567 96.758 15.76 96.758 15.48C96.758 15.1867 96.6514 14.9833 96.438 14.87C96.2247 14.7567 95.9214 14.7 95.528 14.7H94.318V16.24H95.528Z" fill="white"/>
<rect x="0.5" y="0.5" width="141" height="45" rx="7.5" stroke="white"/>
<path d="M30.3928 28.31C33.8924 26.4059 36.5453 24.9549 36.774 24.8421C37.5055 24.4567 38.2609 23.4364 36.774 22.6439C36.2939 22.3946 33.7091 20.9889 30.3928 19.176L25.7954 23.7769L30.3928 28.3099V28.31Z" fill="#FFD900"/>
<path d="M25.7954 23.7769L11.157 38.3964C11.5006 38.4415 11.8885 38.3513 12.3458 38.1021C13.306 37.5813 23.4848 32.073 30.3928 28.311L25.7954 23.7769Z" fill="#F43249"/>
<path d="M25.7955 23.7769L30.3928 19.1987C30.3928 19.1987 13.3755 9.99586 12.3458 9.4526C11.9579 9.22494 11.5232 9.15731 11.1342 9.22494L25.7955 23.7769Z" fill="#00EE76"/>
<path d="M25.7954 23.7769L11.1342 9.22498C10.5392 9.3613 10.0364 9.88222 10.0364 10.9476V36.6739C10.0364 37.649 10.4255 38.3513 11.157 38.4191L25.7954 23.7769Z" fill="#00D3FF"/>
</svg>
