<svg width="22" height="22" viewBox="0 0 22 22" fill="none" xmlns="http://www.w3.org/2000/svg">
<g clip-path="url(#clip0)">
<path d="M11.0007 1.59725C12.8605 1.59725 14.6786 2.14876 16.2249 3.18203C17.7713 4.21529 18.9766 5.68391 19.6883 7.40217C20.4001 9.12043 20.5863 11.0112 20.2234 12.8353C19.8606 14.6593 18.965 16.3349 17.6499 17.65C16.3348 18.9651 14.6593 19.8607 12.8352 20.2235C11.0111 20.5863 9.12037 20.4001 7.40211 19.6884C5.68385 18.9767 4.21523 17.7714 3.18197 16.225C2.1487 14.6786 1.59719 12.8606 1.59719 11.0007C1.59988 8.5076 2.59146 6.11735 4.35437 4.35444C6.11728 2.59153 8.50753 1.59994 11.0007 1.59725ZM11.0007 0C8.82493 0 6.69804 0.645182 4.88898 1.85396C3.07992 3.06273 1.66994 4.78081 0.837321 6.79093C0.00470198 8.80105 -0.213155 11.0129 0.211311 13.1469C0.635776 15.2808 1.68349 17.2409 3.22197 18.7794C4.76045 20.3179 6.7206 21.3656 8.85453 21.7901C10.9885 22.2145 13.2003 21.9967 15.2105 21.1641C17.2206 20.3315 18.9387 18.9215 20.1474 17.1124C21.3562 15.3033 22.0014 13.1765 22.0014 11.0007C22.0014 8.08315 20.8424 5.28507 18.7794 3.22204C16.7163 1.159 13.9182 0 11.0007 0Z" fill="#00AFE5"/>
<path d="M7.35899 11.8822L8.62517 15.3148L14.2417 7.51294L7.35899 11.8822Z" fill="#0094D4"/>
<path d="M8.76312 12.6444L8.6426 15.3496L11.6062 12.8346L8.76312 12.6444Z" fill="#007AAE"/>
<path d="M15.6197 6.19447L4.54927 10.4054C4.481 10.4319 4.42252 10.4787 4.38175 10.5395C4.34097 10.6003 4.31987 10.6722 4.3213 10.7454C4.32272 10.8186 4.34661 10.8896 4.38972 10.9488C4.43284 11.008 4.49309 11.0525 4.56233 11.0763L7.41707 12.0404L13.9179 7.84545L8.76893 12.6474L12.778 15.6894C12.8738 15.7632 12.9866 15.8119 13.106 15.8311C13.2254 15.8503 13.3477 15.8393 13.4618 15.7992C13.576 15.7591 13.6782 15.6912 13.7594 15.6015C13.8406 15.5118 13.898 15.4033 13.9266 15.2858L16.0873 6.62137C16.1039 6.55829 16.103 6.49185 16.0846 6.42926C16.0662 6.36667 16.0309 6.31032 15.9828 6.26633C15.9346 6.22233 15.8753 6.19238 15.8113 6.17971C15.7473 6.16704 15.681 6.17215 15.6197 6.19447Z" fill="#00AFE5"/>
</g>
<defs>
<clipPath id="clip0">
<rect width="22" height="22" fill="white"/>
</clipPath>
</defs>
</svg>
