<svg width="28" height="28" viewBox="0 0 28 28" fill="none" xmlns="http://www.w3.org/2000/svg">
<g clip-path="url(#clip0)">
<path d="M14.0009 2.03287C16.3679 2.03287 18.6818 2.73478 20.65 4.04985C22.6181 5.36492 24.1521 7.23407 25.0579 9.42095C25.9637 11.6078 26.2008 14.0142 25.739 16.3358C25.2772 18.6574 24.1373 20.7899 22.4636 22.4636C20.7898 24.1374 18.6573 25.2772 16.3357 25.739C14.0141 26.2008 11.6078 25.9638 9.42089 25.058C7.23402 24.1521 5.36487 22.6182 4.0498 20.65C2.73474 18.6819 2.03282 16.368 2.03282 14.0009C2.03624 10.8279 3.29825 7.78572 5.54196 5.54201C7.78566 3.29831 10.8278 2.03629 14.0009 2.03287ZM14.0009 0C11.2318 0 8.52481 0.821141 6.22237 2.35958C3.91993 3.89802 2.1254 6.08467 1.06571 8.643C0.00601069 11.2013 -0.271262 14.0165 0.268967 16.7324C0.809196 19.4483 2.14266 21.943 4.10072 23.9011C6.05878 25.8591 8.55352 27.1926 11.2694 27.7328C13.9853 28.2731 16.8005 27.9958 19.3588 26.9361C21.9171 25.8764 24.1038 24.0819 25.6422 21.7794C27.1807 19.477 28.0018 16.77 28.0018 14.0009C28.0018 10.2877 26.5267 6.72646 23.901 4.10078C21.2753 1.47509 17.7141 0 14.0009 0Z" fill="white"/>
<path d="M9.36598 15.1227L10.9775 19.4915L18.1258 9.56189L9.36598 15.1227Z" fill="white"/>
<path d="M11.1531 16.0929L10.9997 19.5358L14.7716 16.335L11.1531 16.0929Z" fill="white"/>
<path d="M19.8796 7.88388L5.78997 13.2433C5.70309 13.277 5.62866 13.3365 5.57677 13.4139C5.52487 13.4913 5.49801 13.5828 5.49983 13.676C5.50164 13.7691 5.53204 13.8595 5.58692 13.9348C5.64179 14.0101 5.71847 14.0668 5.8066 14.0971L9.4399 15.3242L17.7137 9.98513L11.1604 16.0967L16.2629 19.9684C16.3849 20.0623 16.5284 20.1243 16.6804 20.1487C16.8323 20.1731 16.988 20.1592 17.1333 20.1081C17.2785 20.0571 17.4087 19.9706 17.512 19.8564C17.6153 19.7423 17.6884 19.6042 17.7248 19.4546L20.4747 8.42721C20.4959 8.34693 20.4947 8.26236 20.4713 8.1827C20.4478 8.10304 20.403 8.03133 20.3417 7.97534C20.2804 7.91934 20.2049 7.88122 20.1234 7.8651C20.042 7.84897 19.9576 7.85547 19.8796 7.88388Z" fill="white"/>
</g>
<defs>
<clipPath id="clip0">
<rect width="28" height="28" fill="white"/>
</clipPath>
</defs>
</svg>
