<svg width="32" height="32" viewBox="0 0 32 32" fill="none" xmlns="http://www.w3.org/2000/svg">
<path d="M31.2 6.66664C30.1333 7.19998 28.9333 7.46664 27.6 7.59998C28.9333 6.79998 29.8667 5.59998 30.4 4.13331C29.2 4.79998 27.8667 5.33331 26.4 5.59998C25.2 4.39998 23.6 3.59998 21.8667 3.59998C18.4 3.59998 15.6 6.39998 15.6 9.86664C15.6 10.4 15.6 10.8 15.7334 11.3333C10.5334 11.0666 6.00002 8.53331 2.93335 4.79998C2.40002 5.73331 2.00002 6.79998 2.00002 7.99998C2.00002 10.1333 3.06668 12.1333 4.80002 13.2C3.73335 13.2 2.80002 12.9333 2.00002 12.4C2.00002 12.4 2.00002 12.4 2.00002 12.5333C2.00002 15.6 4.13335 18.1333 7.06669 18.6666C6.53335 18.6666 6.00002 18.8 5.33335 18.8C4.93335 18.8 4.53335 18.8 4.13335 18.6666C4.93335 21.2 7.20002 22.9333 10 23.0666C7.86668 24.8 5.20002 25.7333 2.26668 25.7333C1.73335 25.7333 1.20002 25.7333 0.800018 25.6C3.60002 27.3333 6.80002 28.4 10.4 28.4C21.8667 28.4 28.1334 18.9333 28.1334 10.6666C28.1334 10.4 28.1334 10.1333 28.1334 9.86664C29.3333 8.93331 30.4 7.86664 31.2 6.66664Z" fill="white"/>
</svg>
