<svg width="24" height="24" viewBox="0 0 24 24" fill="none" xmlns="http://www.w3.org/2000/svg">
<path d="M22.6 6.29999C22.1 4.09999 19.7 1.79999 17.5 1.29999C13.9 0.599994 10.3 0.599994 6.8 1.29999C4.5 1.79999 2.1 4.09999 1.6 6.19999C0.899997 9.19999 0.899997 12.2 1.6 15.2C2.1 17.3 4.3 19.5 6.4 20.1V22.5C6.4 23.4 7.5 23.8 8.1 23.2L10.5 20.7C11 20.7 11.6 20.7 12.1 20.7C13.9 20.7 15.7 20.5 17.5 20.2C19.7 19.7 22.1 17.4 22.6 15.3C23.3 12.3 23.3 9.29999 22.6 6.29999ZM20.7 14.9C20.3 16.3 18.5 18 17.1 18.4C15.2 18.8 13.3 18.9 11.4 18.9H11.3C11 19.2 9.5 20.7 9.5 20.7L7.6 22.6C7.5 22.7 7.2 22.6 7.2 22.4V18.4C7.2 18.3 7.2 18.3 7.1 18.3C5.7 18 3.8 16.2 3.5 14.8C2.9 12.1 2.9 9.29999 3.5 6.59999C3.9 5.19999 5.7 3.49999 7.1 3.09999C10.4 2.49999 13.7 2.49999 17 3.09999C18.4 3.39999 20.3 5.19999 20.6 6.59999C21.3 9.39999 21.3 12.2 20.7 14.9Z" fill="#92499C"/>
<path d="M15.2 16.7C15 16.6 14.8 16.6 14.6 16.5C12.6 15.7 10.7 14.6 9.19999 12.9C8.39999 12 7.69999 10.9 7.09999 9.7C6.89999 9.2 6.69999 8.6 6.39999 8.1C6.19999 7.6 6.49999 7.1 6.79999 6.7C7.19999 6.3 7.59999 6 7.99999 5.8C8.29999 5.7 8.59999 5.8 8.89999 6C9.39999 6.6 9.89999 7.2 10.3 7.9C10.5 8.3 10.5 8.9 9.99999 9.1C9.89999 9.3 9.79999 9.4 9.69999 9.5C9.59999 9.5 9.49999 9.6 9.49999 9.7C9.39999 9.9 9.39999 10.1 9.49999 10.3C9.99999 11.8 10.9 12.9 12.4 13.5C12.6 13.6 12.9 13.7 13.1 13.7C13.6 13.6 13.7 13.2 14 12.9C14.3 12.6 14.7 12.6 15 12.9C15.3 13.1 15.7 13.3 16 13.6C16.3 13.8 16.6 14 16.9 14.3C17.2 14.5 17.3 14.9 17.1 15.2C16.8 15.8 16.4 16.3 15.8 16.6C15.6 16.6 15.4 16.6 15.2 16.7C15 16.6 15.4 16.6 15.2 16.7Z" fill="#92499C"/>
<path d="M12.1 5.10001C14.8 5.20001 17 7.00001 17.4 9.60001C17.5 10 17.5 10.5 17.5 11C17.5 11.2 17.4 11.4 17.2 11.4C17 11.4 16.9 11.2 16.9 11C16.9 10.6 16.9 10.2 16.8 9.90001C16.5 7.90001 14.9 6.30001 13 5.90001C12.7 5.80001 12.4 5.80001 12.1 5.80001C11.9 5.80001 11.7 5.80001 11.6 5.50001C11.6 5.30001 11.7 5.10001 11.9 5.10001C12 5.10001 12.1 5.10001 12.1 5.10001C14.8 5.20001 12.1 5.10001 12.1 5.10001Z" fill="#92499C"/>
<path d="M16.2 10.4C16.2 10.4 16.2 10.5 16.2 10.6C16.1 10.9 15.7 10.9 15.6 10.6C15.6 10.5 15.6 10.4 15.6 10.3C15.6 9.7 15.5 9.2 15.2 8.7C14.9 8.2 14.5 7.8 13.9 7.5C13.6 7.3 13.2 7.2 12.9 7.2C12.7 7.2 12.6 7.2 12.4 7.1C12.2 7.1 12.1 7 12.1 6.8C12.1 6.6 12.2 6.5 12.4 6.5C13 6.5 13.6 6.7 14.1 7C15.2 7.6 15.8 8.5 16 9.7C16 9.8 16 9.8 16 9.9C16.1 10.1 16.1 10.2 16.2 10.4C16.2 10.4 16.1 10.2 16.2 10.4Z" fill="#92499C"/>
<path d="M14.5 10.3C14.3 10.3 14.2 10.2 14.1 9.99999C14.1 9.89999 14.1 9.69999 14 9.59999C14 9.29999 13.9 8.99999 13.6 8.89999C13.5 8.79999 13.4 8.79999 13.2 8.69999C13 8.69999 12.9 8.69999 12.7 8.59999C12.5 8.59999 12.4 8.39999 12.5 8.19999C12.5 7.99999 12.7 7.89999 12.8 7.89999C13.8 7.99999 14.6 8.49999 14.7 9.69999C14.7 9.79999 14.7 9.89999 14.7 9.99999C14.7 10.2 14.6 10.3 14.5 10.3C14.3 10.3 14.6 10.3 14.5 10.3Z" fill="#92499C"/>
</svg>
