<svg width="28" height="28" viewBox="0 0 28 28" fill="none" xmlns="http://www.w3.org/2000/svg">
<path d="M26.3666 7.35001C25.7833 4.78334 22.9833 2.10001 20.4166 1.51667C16.2166 0.700008 12.0167 0.700008 7.93332 1.51667C5.24998 2.10001 2.44998 4.78334 1.86665 7.23334C1.04998 10.7333 1.04998 14.2333 1.86665 17.7333C2.44998 20.1833 5.01665 22.75 7.46665 23.45V26.25C7.46665 27.3 8.74998 27.7667 9.44998 27.0667L12.25 24.15C12.8333 24.15 13.5333 24.15 14.1167 24.15C16.2167 24.15 18.3166 23.9167 20.4166 23.5667C22.9833 22.9833 25.7833 20.3 26.3666 17.85C27.1833 14.35 27.1833 10.85 26.3666 7.35001ZM24.15 17.3833C23.6833 19.0167 21.5833 21 19.95 21.4667C17.7333 21.9333 15.5166 22.05 13.3 22.05H13.1833C12.8333 22.4 11.0833 24.15 11.0833 24.15L8.86665 26.3667C8.74998 26.4833 8.39998 26.3667 8.39998 26.1333V21.4667C8.39998 21.35 8.39998 21.35 8.28332 21.35C6.64998 21 4.43332 18.9 4.08332 17.2667C3.38332 14.1167 3.38332 10.85 4.08332 7.70001C4.54998 6.06667 6.64998 4.08334 8.28332 3.61667C12.1333 2.91667 15.9833 2.91667 19.8333 3.61667C21.4667 3.96667 23.6833 6.06667 24.0333 7.70001C24.85 10.9667 24.85 14.2333 24.15 17.3833Z" fill="white"/>
<path d="M17.7333 19.4834C17.5 19.3667 17.2667 19.3667 17.0333 19.25C14.7 18.3167 12.4833 17.0334 10.7333 15.05C9.8 14 8.98333 12.7167 8.28333 11.3167C8.05 10.7334 7.81666 10.0334 7.46666 9.45005C7.23333 8.86672 7.58333 8.28338 7.93333 7.81672C8.4 7.35005 8.86666 7.00005 9.33333 6.76672C9.68333 6.65005 10.0333 6.76672 10.3833 7.00005C10.9667 7.70005 11.55 8.40005 12.0167 9.21672C12.25 9.68338 12.25 10.3834 11.6667 10.6167C11.55 10.85 11.4333 10.9667 11.3167 11.0834C11.2 11.0834 11.0833 11.2 11.0833 11.3167C10.9667 11.55 10.9667 11.7834 11.0833 12.0167C11.6667 13.7667 12.7167 15.05 14.4667 15.75C14.7 15.8667 15.05 15.9834 15.2833 15.9834C15.8667 15.8667 15.9833 15.4 16.3333 15.05C16.6833 14.7 17.15 14.7 17.5 15.05C17.85 15.2834 18.3167 15.5167 18.6667 15.8667C19.0167 16.1 19.3667 16.3334 19.7167 16.6834C20.0667 16.9167 20.1833 17.3834 19.95 17.7334C19.6 18.4334 19.1333 19.0167 18.4333 19.3667C18.2 19.3667 17.9667 19.3667 17.7333 19.4834C17.5 19.3667 17.9667 19.3667 17.7333 19.4834Z" fill="white"/>
<path d="M14.1167 5.94995C17.2667 6.06662 19.8333 8.16662 20.3 11.2C20.4167 11.6666 20.4167 12.25 20.4167 12.8333C20.4167 13.0666 20.3 13.2999 20.0667 13.2999C19.8333 13.2999 19.7167 13.0666 19.7167 12.8333C19.7167 12.3666 19.7167 11.9 19.6 11.55C19.25 9.21662 17.3833 7.34995 15.1667 6.88328C14.8167 6.76662 14.4667 6.76662 14.1167 6.76662C13.8833 6.76662 13.65 6.76662 13.5333 6.41662C13.5333 6.18328 13.65 5.94995 13.8833 5.94995C14 5.94995 14.1167 5.94995 14.1167 5.94995C17.2667 6.06662 14.1167 5.94995 14.1167 5.94995Z" fill="white"/>
<path d="M18.9 12.1334C18.9 12.1334 18.9 12.25 18.9 12.3667C18.7833 12.7167 18.3166 12.7167 18.2 12.3667C18.2 12.25 18.2 12.1334 18.2 12.0167C18.2 11.3167 18.0833 10.7334 17.7333 10.15C17.3833 9.56671 16.9166 9.10004 16.2166 8.75004C15.8666 8.51671 15.4 8.40004 15.05 8.40004C14.8166 8.40004 14.7 8.40004 14.4666 8.28337C14.2333 8.28337 14.1166 8.16671 14.1166 7.93337C14.1166 7.70004 14.2333 7.58337 14.4666 7.58337C15.1666 7.58337 15.8666 7.81671 16.45 8.16671C17.7333 8.86671 18.4333 9.91671 18.6666 11.3167C18.6666 11.4334 18.6666 11.4334 18.6666 11.55C18.7833 11.7834 18.7833 11.9 18.9 12.1334C18.9 12.1334 18.7833 11.9 18.9 12.1334Z" fill="white"/>
<path d="M16.9166 12.0167C16.6833 12.0167 16.5666 11.9 16.45 11.6667C16.45 11.55 16.45 11.3167 16.3333 11.2C16.3333 10.85 16.2166 10.5 15.8666 10.3833C15.75 10.2667 15.6333 10.2667 15.4 10.15C15.1666 10.15 15.05 10.15 14.8166 10.0333C14.5833 10.0333 14.4666 9.80001 14.5833 9.56667C14.5833 9.33334 14.8166 9.21667 14.9333 9.21667C16.1 9.33334 17.0333 9.91667 17.15 11.3167C17.15 11.4333 17.15 11.55 17.15 11.6667C17.15 11.9 17.0333 12.0167 16.9166 12.0167C16.6833 12.0167 17.0333 12.0167 16.9166 12.0167Z" fill="white"/>
</svg>
