<svg width="24" height="24" viewBox="0 0 24 24" fill="none" xmlns="http://www.w3.org/2000/svg">
<path fill-rule="evenodd" clip-rule="evenodd" d="M1.3 23.1C1.4 22.6 1.5 22.2 1.6 21.8C2 20.5 2.3 19.2 2.7 17.8C2.8 17.6 2.7 17.3 2.6 17.2C-0.799997 10.8 2.7 2.99999 9.8 1.39999C16.2 -0.100014 22 4.19999 23 9.99999C24.1 16 20.1 21.8 14.2 22.8C11.8 23.2 9.5 22.9 7.4 21.8C7.2 21.7 6.9 21.7 6.7 21.7C3.8 22.5 1.8 23 1.3 23.1ZM3.8 20.6C4.9 20.3 5.9 20.1 6.9 19.8C7.2 19.7 7.4 19.8 7.6 19.9C9.5 21 11.5 21.4 13.7 21C18.7 20.2 22.1 15.6 21.3 10.6C20.5 5.49999 15.7 2.09999 10.6 2.99999C4.5 4.09999 1.2 11 4.2 16.4C4.5 17 4.6 17.5 4.4 18.1C4.2 18.9 4 19.7 3.8 20.6Z" fill="#56A946"/>
<path fill-rule="evenodd" clip-rule="evenodd" d="M15.1 17.3C13 17.2 9.6 15.5 7.2 11.5C6.4 9.99998 6.5 8.39998 7.7 7.19998C8.2 6.89998 8.70001 6.99998 9.1 6.99998C9.20001 6.99998 9.3 7.19998 9.4 7.29998C9.7 7.99998 10 8.69998 10.3 9.39998C10.4 9.79998 10.2 10.1 9.6 10.8C9.4 11 9.4 11.2 9.5 11.4C10.4 12.9 11.6 14 13.3 14.7C13.5 14.8 13.7 14.7 13.9 14.5C14.8 13.4 14.9 13.1 15.3 13.3C17.5 14.4 17.7 14.4 17.7 14.7C17.8 16.7 16.1 17.3 15.1 17.3Z" fill="#56A946"/>
</svg>
